HIERARCHY
ROOT Pelvis
{
	OFFSET 0.000000 0.000000 0.000000
	CHANNELS 6 Xposition Yposition Zposition Xrotation Yrotation Zrotation
	JOINT LeftUpLeg_virtual
	{
		OFFSET 0.000000 0.000000 0.000000
		CHANNELS 3 Xrotation Yrotation Zrotation
		JOINT LeftUpLeg
		{
			OFFSET 18.735201 -5.666702 -4.541200
			CHANNELS 3 Xrotation Yrotation Zrotation
			JOINT LeftLeg
			{
				OFFSET -0.021200 -31.938179 0.493100
				CHANNELS 3 Xrotation Yrotation Zrotation
				JOINT LeftFoot
				{
					OFFSET 0.021200 -31.938179 -4.336299
					CHANNELS 3 Xrotation Yrotation Zrotation
					JOINT LeftToeBase
					{
						OFFSET 0.943001 -26.722000 15.023500
						CHANNELS 3 Xrotation Yrotation Zrotation
						End Site
						{
							OFFSET 0 0 0
						}
					}
				}
			}
		}
	}
	JOINT RightUpLeg_virtual
	{
		OFFSET 0.000000 0.000000 0.000000
		CHANNELS 3 Xrotation Yrotation Zrotation
		JOINT RightUpLeg
		{
			OFFSET -18.735201 -5.666702 -4.541200
			CHANNELS 3 Xrotation Yrotation Zrotation
			JOINT RightLeg
			{
				OFFSET 0.018946 -31.938133 0.493100
				CHANNELS 3 Xrotation Yrotation Zrotation
				JOINT RightFoot
				{
					OFFSET -0.018946 -31.938126 -4.336299
					CHANNELS 3 Xrotation Yrotation Zrotation
					JOINT RightToeBase
					{
						OFFSET -0.943001 -26.722004 15.023500
						CHANNELS 3 Xrotation Yrotation Zrotation
						End Site
						{
							OFFSET 0 0 0
						}
					}
				}
			}
		}
	}
	JOINT Hips_virtual
	{
		OFFSET 0.000000 0.000000 0.000000
		CHANNELS 3 Xrotation Yrotation Zrotation
		JOINT Hips
		{
			OFFSET -0.000000 -0.000000 -0.000000
			CHANNELS 3 Xrotation Yrotation Zrotation
			JOINT Spine
			{
				OFFSET 0.000000 10.199997 -0.299500
				CHANNELS 3 Xrotation Yrotation Zrotation
				JOINT Spine1
				{
					OFFSET 0.000000 11.900002 -1.516600
					CHANNELS 3 Xrotation Yrotation Zrotation
					JOINT Spine2
					{
						OFFSET 0.000000 13.600006 -2.842500
						CHANNELS 3 Xrotation Yrotation Zrotation
						JOINT Neck_virtual
						{
							OFFSET 0.000000 0.000000 0.000000
							CHANNELS 3 Xrotation Yrotation Zrotation
							JOINT Neck
							{
								OFFSET 0.000000 9.624100 -2.890100
								CHANNELS 3 Xrotation Yrotation Zrotation
								JOINT Head
								{
									OFFSET 0.000000 14.068802 -1.351900
									CHANNELS 3 Xrotation Yrotation Zrotation
									End Site
									{
										OFFSET 0 0 0
									}
								}
							}
						}
						JOINT LeftShoulder_virtual
						{
							OFFSET 0.000000 0.000000 0.000000
							CHANNELS 3 Xrotation Yrotation Zrotation
							JOINT LeftShoulder
							{
								OFFSET 15.263000 10.923401 -0.547700
								CHANNELS 3 Xrotation Yrotation Zrotation
								JOINT LeftArm
								{
									OFFSET 25.438599 -2.830597 -13.032500
									CHANNELS 3 Xrotation Yrotation Zrotation
									JOINT LeftForeArm
									{
										OFFSET 29.960503 0.000000 0.000000
										CHANNELS 3 Xrotation Yrotation Zrotation
										JOINT LeftHand
										{
											OFFSET 27.849251 0.000000 0.000000
											CHANNELS 3 Xrotation Yrotation Zrotation
											End Site
											{
												OFFSET 0 0 0
											}
										}
									}
								}
							}
						}
						JOINT RightShoulder_virtual
						{
							OFFSET 0.000000 0.000000 0.000000
							CHANNELS 3 Xrotation Yrotation Zrotation
							JOINT RightShoulder
							{
								OFFSET -15.263000 10.923401 -0.547700
								CHANNELS 3 Xrotation Yrotation Zrotation
								JOINT RightArm
								{
									OFFSET -25.438599 -2.830597 -13.032500
									CHANNELS 3 Xrotation Yrotation Zrotation
									JOINT RightForeArm
									{
										OFFSET -29.960503 0.000000 0.000000
										CHANNELS 3 Xrotation Yrotation Zrotation
										JOINT RightHand
										{
											OFFSET -27.849251 0.000000 0.000000
											CHANNELS 3 Xrotation Yrotation Zrotation
											End Site
											{
												OFFSET 0 0 0
											}
										}
									}
								}
							}
						}
					}
				}
			}
		}
	}
}
MOTION
Frames: 11
Frame Time: 0.03333333
-1.130031 92.814949 6.152866 0.000000 0.000000 0.000000 7.138369 5.071313 -1.787279 -33.227354 12.600785 16.478808 38.973589 -5.583313 1.819346 -10.487843 -6.480543 -6.155158 0.000000 0.000000 0.000000 10.283140 5.095982 7.563194 -15.067035 -5.800007 -5.438285 25.021575 -10.931864 -3.988209 -23.170556 -12.661992 -2.103708 0.000000 0.000000 0.000000 -0.082612 2.954746 0.990150 -12.396089 8.901482 0.926122 5.102700 0.043925 2.947703 1.248864 -0.281343 1.920562 0.000000 0.000000 0.000000 6.969362 0.327021 1.609813 1.409317 -0.343535 0.629832 0.000000 0.000000 0.000000 3.401634 -0.660590 1.074520 1.260970 -10.836014 -5.522444 1.034288 11.384348 -58.659720 0.377473 -21.688545 -7.368260 0.000000 0.000000 0.000000 4.563482 -0.143622 1.740612 2.334417 4.665105 13.055468 13.919295 -4.015669 52.143577 6.947244 21.412421 2.297363 0.000000 0.000000 0.000000 
-1.130143 92.867401 6.152901 0.000000 0.000000 0.000000 7.217463 4.789908 -1.779614 -33.097437 12.552004 16.439150 38.772337 -5.363900 1.705679 -10.592016 -6.202789 -6.175354 0.000000 0.000000 0.000000 10.277944 4.819313 7.527915 -15.106319 -5.867380 -5.515884 24.941552 -10.689080 -3.979345 -23.166743 -12.453744 -1.963905 0.000000 0.000000 0.000000 -0.075701 2.745626 0.973267 -12.069515 8.707093 0.804505 5.119241 0.001010 2.960958 1.254647 -0.301425 1.924886 0.000000 0.000000 0.000000 6.924150 0.336972 1.630560 1.378921 -0.341105 0.652408 0.000000 0.000000 0.000000 3.421351 -0.687723 1.057284 1.273160 -10.918118 -5.588784 1.115494 11.535908 -58.814841 0.329235 -21.584024 -7.376365 0.000000 0.000000 0.000000 4.573234 -0.177435 1.746708 2.331585 4.526058 13.145194 13.883358 -4.377156 52.029738 6.875340 20.975950 2.271090 0.000000 0.000000 0.000000 
-1.132884 92.920326 6.151081 0.000000 0.000000 0.000000 7.288724 4.485054 -1.774406 -32.973664 12.496902 16.392128 38.560086 -5.131326 1.593420 -10.704175 -5.911800 -6.185209 0.000000 0.000000 0.000000 10.274557 4.529514 7.486931 -15.142642 -5.937176 -5.600358 24.879307 -10.427884 -3.966694 -23.147740 -12.228630 -1.808654 0.000000 0.000000 0.000000 -0.071244 2.524107 0.952547 -11.743089 8.493486 0.660703 5.147004 -0.040972 2.968929 1.264807 -0.319887 1.927358 0.000000 0.000000 0.000000 6.879584 0.348679 1.651462 1.349786 -0.336937 0.674496 0.000000 0.000000 0.000000 3.443857 -0.713631 1.043024 1.291280 -10.990176 -5.644463 1.207076 11.662692 -58.971566 0.292895 -21.496258 -7.385551 0.000000 0.000000 0.000000 4.585507 -0.203655 1.757299 2.331119 4.425553 13.249945 13.761460 -4.784734 51.917217 6.760291 20.520374 2.256506 0.000000 0.000000 0.000000 
-1.130837 92.974701 6.153107 0.000000 0.000000 0.000000 7.352647 4.159355 -1.771662 -32.856451 12.436208 16.338540 38.341622 -4.890281 1.484058 -10.822561 -5.612907 -6.185923 0.000000 0.000000 0.000000 10.271589 4.227838 7.442914 -15.178806 -6.009513 -5.689335 24.832015 -10.154873 -3.952930 -23.117376 -11.991158 -1.645512 0.000000 0.000000 0.000000 -0.065930 2.288067 0.931373 -11.417453 8.260349 0.510467 5.181535 -0.086514 2.975440 1.277597 -0.339216 1.929823 0.000000 0.000000 0.000000 6.836385 0.359633 1.672305 1.321997 -0.332466 0.695710 0.000000 0.000000 0.000000 3.469155 -0.740093 1.031798 1.315104 -11.056610 -5.688817 1.316215 11.759147 -59.123320 0.272424 -21.426788 -7.392827 0.000000 0.000000 0.000000 4.598885 -0.224236 1.772699 2.332083 4.357965 13.370070 13.567432 -5.212720 51.810164 6.612429 20.071260 2.252515 0.000000 0.000000 0.000000 
-1.128909 93.032127 6.155752 0.000000 0.000000 0.000000 7.410456 3.817755 -1.770378 -32.745986 12.371026 16.280868 38.122913 -4.644986 1.378046 -10.943981 -5.310623 -6.179940 0.000000 0.000000 0.000000 10.276609 3.939937 7.392680 -15.201624 -6.077783 -5.782257 24.822851 -9.873295 -3.944331 -23.057322 -11.740070 -1.488429 0.000000 0.000000 0.000000 -0.057313 2.036588 0.910234 -11.089477 8.011320 0.349594 5.221340 -0.137089 2.981049 1.292277 -0.360356 1.932396 0.000000 0.000000 0.000000 6.795180 0.369135 1.692471 1.295829 -0.327963 0.715547 0.000000 0.000000 0.000000 3.496832 -0.767929 1.023098 1.344486 -11.120025 -5.723890 1.446340 11.818270 -59.263366 0.270443 -21.379086 -7.395663 0.000000 0.000000 0.000000 4.615609 -0.239664 1.792274 2.337558 4.322327 13.501232 13.323361 -5.613091 51.711366 6.448940 19.677080 2.255806 0.000000 0.000000 0.000000 
-1.126308 93.096306 6.155313 0.000000 0.000000 0.000000 7.461811 3.464860 -1.769665 -32.642789 12.301987 16.220704 37.903483 -4.398148 1.275833 -11.069133 -5.007890 -6.168315 0.000000 0.000000 0.000000 10.280412 3.647478 7.343143 -15.225731 -6.147162 -5.874811 24.832128 -9.588749 -3.935676 -22.984616 -11.483916 -1.329931 0.000000 0.000000 0.000000 -0.044996 1.774342 0.889659 -10.766552 7.755788 0.174611 5.269659 -0.195031 2.986136 1.311049 -0.385034 1.935180 0.000000 0.000000 0.000000 6.758623 0.375124 1.712273 1.272533 -0.324575 0.734041 0.000000 0.000000 0.000000 3.529242 -0.797189 1.016026 1.379273 -11.177269 -5.756115 1.594291 11.839423 -59.387081 0.285567 -21.353202 -7.393243 0.000000 0.000000 0.000000 4.637173 -0.251417 1.815783 2.347101 4.316378 13.638657 13.044222 -5.953026 51.622256 6.281651 19.372319 2.263630 0.000000 0.000000 0.000000 
-1.126150 93.164154 6.153700 0.000000 0.000000 0.000000 7.509300 3.105684 -1.768815 -32.544929 12.230611 16.160000 37.685917 -4.151264 1.177923 -11.197241 -4.706421 -6.151403 0.000000 0.000000 0.000000 10.287898 3.353594 7.288690 -15.246456 -6.216553 -5.973585 24.874695 -9.305497 -3.930280 -22.890691 -11.223725 -1.177658 0.000000 0.000000 0.000000 -0.029237 1.500509 0.870543 -10.452939 7.485075 -0.005029 5.327309 -0.260968 2.986734 1.334601 -0.413795 1.935837 0.000000 0.000000 0.000000 6.730399 0.375523 1.726153 1.253867 -0.323313 0.748016 0.000000 0.000000 0.000000 3.567413 -0.825565 1.007601 1.420082 -11.219439 -5.791743 1.761675 11.821673 -59.498755 0.317744 -21.347259 -7.388101 0.000000 0.000000 0.000000 4.667492 -0.260901 1.839629 2.365444 4.334876 13.772253 12.751482 -6.197160 51.537677 6.125421 19.190636 2.269793 0.000000 0.000000 0.000000 
-1.123114 93.233276 6.156872 0.000000 0.000000 0.000000 7.554109 2.749753 -1.768216 -32.452285 12.159494 16.100127 37.472651 -3.904185 1.083352 -11.326793 -4.405691 -6.130679 0.000000 0.000000 0.000000 10.299112 3.064944 7.231476 -15.263956 -6.284674 -6.075880 24.944227 -9.024835 -3.929346 -22.781198 -10.960275 -1.033581 0.000000 0.000000 0.000000 -0.011197 1.215172 0.853136 -10.154331 7.199316 -0.189606 5.393408 -0.336167 2.984767 1.362609 -0.447527 1.935256 0.000000 0.000000 0.000000 6.708171 0.370811 1.739687 1.238923 -0.323962 0.760458 0.000000 0.000000 0.000000 3.607597 -0.857766 0.999183 1.461586 -11.263738 -5.832793 1.939934 11.765426 -59.597383 0.363701 -21.363435 -7.381391 0.000000 0.000000 0.000000 4.704777 -0.269991 1.864186 2.390699 4.372028 13.896023 12.448969 -6.330642 51.460281 5.984365 19.150708 2.273744 0.000000 0.000000 0.000000 
-1.118471 93.303932 6.164034 0.000000 0.000000 0.000000 7.596437 2.397802 -1.768914 -32.365292 12.089252 16.040377 37.258866 -3.659651 0.991009 -11.462110 -4.107691 -6.109457 0.000000 0.000000 0.000000 10.307427 2.784620 7.176180 -15.287691 -6.350835 -6.176888 25.023834 -8.746370 -3.932009 -22.669746 -10.694439 -0.894903 0.000000 0.000000 0.000000 0.006633 0.922982 0.837093 -9.876454 6.901394 -0.376215 5.467789 -0.408188 2.976698 1.395176 -0.480166 1.931700 0.000000 0.000000 0.000000 6.692908 0.366328 1.750406 1.228443 -0.323121 0.770241 0.000000 0.000000 0.000000 3.649470 -0.888722 0.988417 1.502212 -11.314122 -5.883469 2.118292 11.671514 -59.683682 0.419480 -21.404387 -7.374755 0.000000 0.000000 0.000000 4.748708 -0.273584 1.887372 2.422693 4.424690 14.007491 12.140629 -6.339987 51.394435 5.861549 19.266647 2.276671 0.000000 0.000000 0.000000 
-1.110548 93.376785 6.170952 0.000000 0.000000 0.000000 7.639606 2.043085 -1.770896 -32.278245 12.019046 15.979178 37.042069 -3.420474 0.901180 -11.603895 -3.815585 -6.088914 0.000000 0.000000 0.000000 10.312106 2.514507 7.125138 -15.317336 -6.414763 -6.273228 25.105820 -8.470949 -3.937900 -22.560398 -10.428085 -0.761918 0.000000 0.000000 0.000000 0.024441 0.626010 0.822839 -9.611486 6.593740 -0.556114 5.551789 -0.486491 2.963969 1.433422 -0.516554 1.925800 0.000000 0.000000 0.000000 6.688793 0.356496 1.755921 1.224655 -0.324046 0.775939 0.000000 0.000000 0.000000 3.692642 -0.923507 0.975952 1.540585 -11.371220 -5.944768 2.289400 11.541992 -59.755802 0.482716 -21.470935 -7.367955 0.000000 0.000000 0.000000 4.798276 -0.277535 1.909019 2.460050 4.489700 14.102331 11.825259 -6.223300 51.340968 5.756871 19.542693 2.278354 0.000000 0.000000 0.000000 
-1.097167 93.451813 6.186562 0.000000 0.000000 0.000000 7.684534 1.690234 -1.774525 -32.190794 11.950293 15.917020 36.822185 -3.187770 0.813307 -11.751920 -3.530315 -6.070582 0.000000 0.000000 0.000000 10.316689 2.208493 7.078424 -15.353705 -6.489318 -6.371565 25.188884 -8.204449 -3.948386 -22.453291 -10.166474 -0.640785 0.000000 0.000000 0.000000 0.039620 0.329645 0.809071 -9.366171 6.284943 -0.736100 5.641573 -0.566529 2.946888 1.475126 -0.554578 1.917848 0.000000 0.000000 0.000000 6.689775 0.343571 1.759546 1.224814 -0.325342 0.779511 0.000000 0.000000 0.000000 3.734321 -0.960954 0.962186 1.575854 -11.436498 -6.015194 2.445452 11.373029 -59.811973 0.551391 -21.570987 -7.360256 0.000000 0.000000 0.000000 4.848558 -0.280389 1.929391 2.499211 4.566897 14.182412 11.495745 -5.987431 51.307199 5.665896 19.974753 2.282634 0.000000 0.000000 0.000000 
